<svg width="1001" height="238" viewBox="0 0 1001 238" fill="none" xmlns="http://www.w3.org/2000/svg">
<g clip-path="url(#clip0_10_24)">
<path d="M70.0211 225.517C79.8359 235.443 95.7487 235.444 105.564 225.517C115.378 215.591 115.379 199.498 105.564 189.572L43.8453 127.153C34.0304 117.227 18.1174 117.227 8.30258 127.153C-1.51224 137.08 -1.51212 153.173 8.3027 163.099L70.0211 225.517Z" fill="white"/>
<path d="M105.552 100.447C115.366 90.5204 115.367 74.427 105.552 64.5009C95.7371 54.5747 79.8239 54.5747 70.0091 64.5009L8.29069 126.919C-1.52413 136.845 -1.52401 152.939 8.2908 162.865C18.1056 172.791 34.0184 172.791 43.8332 162.865L105.552 100.447Z" fill="white"/>
<path d="M252.033 106.465C261.847 96.5393 261.847 80.4461 252.033 70.5199C242.218 60.5938 226.305 60.5937 216.49 70.5198L154.772 132.938C144.957 142.864 144.957 158.958 154.772 168.884C164.586 178.81 180.499 178.81 190.314 168.884L252.033 106.465Z" fill="white"/>
<path d="M216.466 106.248C226.281 116.174 242.194 116.174 252.009 106.248C261.823 96.3221 261.824 80.2286 252.009 70.3025L190.29 7.88406C180.476 -2.04207 164.562 -2.04195 154.748 7.88418C144.933 17.8103 144.933 33.9036 154.748 43.8297L216.466 106.248Z" fill="white"/>
<path d="M418.087 27.0092H424.225C427.539 27.0092 430.717 28.3407 433.061 30.7109C435.405 33.081 436.721 36.2958 436.721 39.6477V120.478C436.776 128.717 435.16 136.88 431.972 144.463C428.92 151.802 424.498 158.477 418.948 164.123C413.374 169.739 406.771 174.204 399.509 177.267C391.995 180.437 383.934 182.07 375.793 182.07C367.651 182.07 359.59 180.437 352.076 177.267C337.494 171.056 325.893 159.323 319.752 144.575C316.564 136.993 314.948 128.83 315.003 120.59V39.6477C314.999 37.987 315.32 36.3418 315.946 34.8068C316.573 33.2717 317.493 31.877 318.655 30.7026C319.816 29.5283 321.195 28.5975 322.713 27.9637C324.231 27.3298 325.857 27.0055 327.499 27.0092H333.637C336.951 27.0092 340.13 28.3407 342.473 30.7109C344.817 33.081 346.134 36.2958 346.134 39.6477V120.478C346.123 124.489 346.906 128.462 348.439 132.162C349.911 135.741 352.062 138.995 354.77 141.739C360.37 147.342 367.929 150.485 375.806 150.485C383.684 150.485 391.243 147.342 396.843 141.739C402.393 136.089 405.5 128.442 405.479 120.478V39.6477C405.476 37.9774 405.8 36.323 406.433 34.7806C407.067 33.2381 407.998 31.8384 409.17 30.6625C410.343 29.4867 411.736 28.5583 413.267 27.9311C414.797 27.3039 416.436 26.9906 418.087 27.0092Z" fill="white"/>
<path d="M557.968 181.957H551.831C548.516 181.957 545.338 180.626 542.994 178.256C540.651 175.886 539.334 172.671 539.334 169.319V120.478C539.333 115.526 538.121 110.651 535.806 106.287C533.491 101.923 530.144 98.2066 526.064 95.4679C521.985 92.7292 517.298 91.0537 512.423 90.5906C507.548 90.1276 502.635 90.8913 498.122 92.8138C494.579 94.2991 491.354 96.4642 488.625 99.1893C485.924 101.945 483.783 105.208 482.321 108.795C480.764 112.487 479.97 116.463 479.988 120.478V169.319C479.992 170.98 479.671 172.625 479.044 174.16C478.418 175.695 477.497 177.09 476.336 178.264C475.175 179.438 473.796 180.369 472.278 181.003C470.76 181.637 469.134 181.961 467.491 181.957H461.382C459.739 181.961 458.11 181.637 456.591 181.003C455.072 180.37 453.691 179.44 452.527 178.266C451.364 177.092 450.441 175.697 449.811 174.162C449.182 172.627 448.857 170.981 448.857 169.319V120.478C448.8 112.239 450.416 104.075 453.606 96.493C459.796 81.7818 471.397 70.0794 485.959 63.8576C493.473 60.6873 501.533 59.0549 509.675 59.0549C517.816 59.0549 525.877 60.6873 533.391 63.8576C540.647 66.945 547.247 71.4172 552.83 77.0297C558.384 82.6675 562.798 89.3451 565.827 96.6896C569.017 104.272 570.633 112.435 570.576 120.675V169.516C570.532 172.855 569.18 176.041 566.816 178.373C564.452 180.706 561.27 181.995 557.968 181.957Z" fill="white"/>
<path d="M601.262 181.957H595.125C591.811 181.957 588.632 180.626 586.288 178.256C583.945 175.886 582.628 172.671 582.628 169.319V39.6478C582.628 36.2959 583.945 33.0812 586.288 30.711C588.632 28.3408 591.811 27.0093 595.125 27.0093H601.262C602.905 27.0056 604.531 27.3299 606.049 27.9638C607.567 28.5976 608.946 29.5284 610.107 30.7027C611.268 31.8771 612.188 33.2719 612.815 34.8069C613.442 36.3419 613.763 37.9871 613.759 39.6478V169.319C613.763 170.98 613.442 172.625 612.815 174.16C612.188 175.695 611.268 177.09 610.107 178.264C608.946 179.438 607.567 180.369 606.049 181.003C604.531 181.637 602.905 181.961 601.262 181.957Z" fill="white"/>
<path d="M686.712 58.9707C694.859 58.9129 702.932 60.5475 710.429 63.7732C725.006 70.0151 736.61 81.75 742.781 96.493C745.916 104.092 747.53 112.244 747.53 120.478C747.53 128.712 745.916 136.864 742.781 144.463C739.729 151.802 735.306 158.477 729.757 164.123C724.182 169.739 717.58 174.204 710.317 177.267C702.804 180.437 694.743 182.07 686.602 182.07C678.46 182.07 670.399 180.437 662.885 177.267C648.303 171.018 636.72 159.243 630.616 144.463C627.481 136.864 625.867 128.712 625.867 120.478C625.867 112.244 627.481 104.092 630.616 96.493C633.645 89.1485 638.059 82.4709 643.613 76.8331C649.196 71.2206 655.796 66.7484 663.052 63.661C670.541 60.4835 678.592 58.8875 686.712 58.9707ZM686.712 150.474C691.609 150.473 696.43 149.247 700.744 146.906C705.059 144.564 708.734 141.179 711.442 137.053C714.15 132.927 715.807 128.188 716.265 123.257C716.723 118.327 715.968 113.358 714.067 108.795C712.62 105.2 710.476 101.934 707.763 99.1893C705.049 96.4448 701.82 94.277 698.265 92.8138C694.213 91.0739 689.828 90.2674 685.429 90.4527C681.03 90.6379 676.727 91.8102 672.832 93.8848C668.936 95.9595 665.546 98.8845 662.906 102.448C660.266 106.011 658.443 110.124 657.569 114.488C656.694 118.851 656.791 123.357 657.851 127.679C658.911 132 660.908 136.029 663.698 139.474C666.488 142.919 670 145.693 673.98 147.595C677.961 149.498 682.31 150.481 686.712 150.474Z" fill="white"/>
<path d="M866.139 124.157C868.142 124.149 870.117 124.629 871.899 125.555C873.681 126.481 875.217 127.827 876.376 129.479C877.536 131.131 878.286 133.041 878.563 135.047C878.84 137.054 878.636 139.098 877.969 141.009C877.268 143.008 876.462 144.967 875.553 146.878C872.335 153.783 867.839 159.999 862.306 165.19C856.752 170.391 850.33 174.556 843.339 177.492C836.1 180.547 828.327 182.095 820.484 182.042C812.336 182.099 804.264 180.465 796.767 177.239C789.505 174.176 782.902 169.711 777.328 164.095C771.778 158.448 767.356 151.773 764.304 144.435C761.169 136.836 759.555 128.684 759.555 120.45C759.555 112.216 761.169 104.064 764.304 96.4648C770.525 81.7432 782.168 70.0487 796.767 63.8575C804.264 60.6317 812.336 58.997 820.484 59.0548C828.327 59.0016 836.1 60.5491 843.339 63.6046C850.324 66.5507 856.745 70.7144 862.306 75.9061C867.84 81.1074 872.336 87.3331 875.553 94.2461C876.467 96.155 877.273 98.1147 877.969 100.116C878.636 102.026 878.84 104.071 878.563 106.077C878.286 108.084 877.536 109.994 876.376 111.646C875.217 113.298 873.681 114.643 871.899 115.57C870.117 116.496 868.142 116.975 866.139 116.967H859.335C856.899 116.994 854.51 116.288 852.473 114.937C850.435 113.587 848.841 111.654 847.893 109.384C847.504 108.457 847.088 107.559 846.616 106.576C845.005 103.386 842.82 100.529 840.173 98.1501C837.519 95.763 834.474 93.8621 831.175 92.5329C827.782 91.1295 824.149 90.4139 820.484 90.4265C816.514 90.4079 812.582 91.2106 808.931 92.7856C805.376 94.2488 802.147 96.4166 799.434 99.1611C796.72 101.906 794.576 105.171 793.13 108.766C791.214 113.329 790.447 118.302 790.899 123.238C791.35 128.174 793.005 132.92 795.716 137.051C798.427 141.181 802.109 144.566 806.431 146.904C810.754 149.242 815.582 150.459 820.484 150.445C824.146 150.454 827.776 149.748 831.175 148.367C834.468 147.026 837.511 145.126 840.173 142.75C842.793 140.411 844.975 137.614 846.616 134.493C847.107 133.584 847.542 132.646 847.921 131.684C848.891 129.398 850.508 127.452 852.568 126.093C854.629 124.733 857.041 124.021 859.501 124.045L866.139 124.157Z" fill="white"/>
<path d="M912.071 181.957H905.934C904.292 181.961 902.665 181.637 901.147 181.003C899.629 180.369 898.25 179.438 897.089 178.264C895.928 177.09 895.008 175.695 894.381 174.16C893.754 172.625 893.433 170.98 893.437 169.319V39.6478C893.433 37.9871 893.754 36.3419 894.381 34.8069C895.008 33.2719 895.928 31.8771 897.089 30.7027C898.25 29.5284 899.629 28.5976 901.147 27.9638C902.665 27.3299 904.292 27.0056 905.934 27.0093H912.071C915.385 27.0093 918.564 28.3408 920.908 30.711C923.251 33.0812 924.568 36.2959 924.568 39.6478V89.1346C924.557 91.2108 925.055 93.2573 926.016 95.0918C926.977 96.9263 928.372 98.4918 930.077 99.6485C931.782 100.805 933.743 101.518 935.786 101.722C937.829 101.926 939.89 101.615 941.786 100.818H941.952C952.67 96.1935 961.207 87.5601 965.779 76.7208C966.847 74.2328 967.675 71.6463 968.251 68.9973C968.87 66.1935 970.414 63.6864 972.63 61.8893C974.847 60.0923 977.602 59.1124 980.442 59.1111H987.302C989.131 59.1104 990.939 59.5161 992.596 60.2994C994.254 61.0827 995.721 62.2246 996.895 63.6443C998.068 65.0641 998.919 66.727 999.387 68.5158C999.855 70.3046 999.929 72.1755 999.604 73.9964C998.341 80.9365 996.087 87.6539 992.911 93.9373C989.598 100.369 985.431 106.313 980.526 111.603C978.4 113.915 977.218 116.956 977.218 120.113C977.218 123.27 978.4 126.311 980.526 128.623C985.577 134.107 989.856 140.269 993.244 146.935C996.464 153.23 998.756 159.966 1000.05 166.932C1000.38 168.755 1000.31 170.629 999.842 172.421C999.376 174.213 998.525 175.88 997.351 177.303C996.178 178.726 994.709 179.871 993.049 180.656C991.389 181.44 989.578 181.847 987.746 181.845H980.665C977.823 181.849 975.065 180.871 972.848 179.073C970.631 177.275 969.087 174.765 968.473 171.959C967.898 169.282 967.071 166.668 966.002 164.151C961.493 153.187 952.877 144.473 942.036 139.913H941.702C939.807 139.135 937.751 138.839 935.717 139.054C933.682 139.268 931.731 139.986 930.035 141.143C928.339 142.3 926.951 143.862 925.993 145.69C925.034 147.518 924.535 149.556 924.54 151.625V169.347C924.533 172.689 923.217 175.892 920.88 178.256C918.543 180.619 915.376 181.95 912.071 181.957Z" fill="white"/>
<path d="M461.354 225.49C460.434 227.751 459.052 229.789 457.299 231.472C455.493 233.194 453.37 234.539 451.051 235.433C448.508 236.42 445.804 236.915 443.081 236.893H430.195V199.371H443.081C445.8 199.341 448.501 199.817 451.051 200.775C453.37 201.668 455.493 203.014 457.299 204.735C459.051 206.397 460.433 208.417 461.354 210.661C463.268 215.415 463.268 220.737 461.354 225.49ZM457.355 212.346C456.666 210.571 455.627 208.956 454.3 207.6C452.909 206.22 451.256 205.14 449.44 204.426C447.411 203.641 445.253 203.25 443.081 203.274H434.388V232.961H443.081C445.251 232.994 447.409 232.613 449.44 231.837C451.258 231.153 452.913 230.091 454.3 228.72C455.608 227.37 456.645 225.778 457.355 224.03C458.799 220.272 458.799 216.104 457.355 212.346Z" fill="white"/>
<path d="M506.398 203.218H483.793V216.025H504.01V219.901H483.793V233.017H506.675V236.893H479.599V199.371H506.398V203.218Z" fill="white"/>
<path d="M550.97 199.371H555.468L539.528 237.146H535.807L519.867 199.371H524.532L537.723 231.669L550.97 199.371Z" fill="white"/>
<path d="M597.569 203.218H575.075V216.025H595.32V219.901H575.075V233.017H597.958V236.893H570.881V199.371H597.708L597.569 203.218Z" fill="white"/>
<path d="M614.203 199.371H618.369V233.073H639.253V237.005H614.259L614.203 199.371Z" fill="white"/>
<path d="M687.629 225.49C686.748 227.782 685.437 229.88 683.769 231.669C682.007 233.551 679.878 235.042 677.516 236.047C675.154 237.053 672.612 237.551 670.05 237.511C667.398 237.55 664.768 237.024 662.33 235.966C660.09 234.979 658.069 233.546 656.387 231.753C654.719 229.975 653.408 227.886 652.527 225.603C651.634 223.235 651.182 220.721 651.194 218.188C651.178 215.642 651.64 213.117 652.555 210.745C653.453 208.462 654.762 206.367 656.415 204.566C658.114 202.754 660.153 201.303 662.413 200.297C664.858 199.23 667.498 198.695 670.161 198.725C672.804 198.685 675.426 199.212 677.854 200.269C680.102 201.256 682.133 202.688 683.824 204.482C685.499 206.261 686.803 208.362 687.657 210.661C689.489 215.43 689.489 220.721 687.657 225.49H687.629ZM683.574 212.121C682.91 210.295 681.89 208.623 680.573 207.204C679.256 205.786 677.67 204.65 675.91 203.864C674.067 203.033 672.068 202.612 670.05 202.628C668.035 202.616 666.04 203.027 664.19 203.836C662.455 204.613 660.896 205.741 659.608 207.15C658.306 208.568 657.287 210.227 656.609 212.037C655.165 215.93 655.165 220.221 656.609 224.114C657.295 225.949 658.333 227.629 659.664 229.057C660.979 230.46 662.555 231.586 664.302 232.371C666.14 233.219 668.141 233.641 670.161 233.607C672.177 233.63 674.175 233.218 676.021 232.399C677.759 231.641 679.32 230.521 680.603 229.113C681.882 227.672 682.889 226.006 683.574 224.198C684.315 222.283 684.692 220.244 684.685 218.188C684.692 216.113 684.316 214.056 683.574 212.121Z" fill="white"/>
<path d="M732.423 216.671C731.671 218.188 730.588 219.513 729.257 220.547C727.865 221.605 726.293 222.395 724.619 222.878C722.811 223.388 720.942 223.643 719.065 223.636H710.068V236.893H705.874V199.37H719.759C721.687 199.355 723.605 199.629 725.453 200.185C727.052 200.678 728.542 201.479 729.84 202.544C731.035 203.571 731.984 204.857 732.617 206.307C733.28 207.888 733.61 209.59 733.589 211.307C733.633 213.164 733.233 215.004 732.423 216.671ZM726.674 205.437C724.536 203.964 721.983 203.234 719.398 203.359H710.012V219.873H719.204C720.614 219.891 722.019 219.693 723.37 219.283C724.546 218.929 725.647 218.357 726.619 217.598C727.497 216.891 728.201 215.988 728.674 214.958C729.163 213.894 729.41 212.733 729.396 211.56C729.485 210.378 729.284 209.193 728.809 208.109C728.334 207.026 727.6 206.079 726.674 205.353V205.437Z" fill="white"/>
<path d="M775.967 203.218H753.362V216.025H773.607V219.901H753.362V233.017H776.245V236.893H749.168V199.371H775.967V203.218Z" fill="white"/>
<path d="M818.151 236.893L807.404 222.316H796.795V236.893H792.63V199.371H808.57C810.451 199.337 812.325 199.603 814.124 200.157C815.659 200.655 817.091 201.436 818.345 202.46C819.522 203.414 820.471 204.623 821.122 205.999C821.779 207.433 822.111 208.997 822.094 210.577C822.119 212.017 821.864 213.448 821.345 214.79C820.869 215.987 820.161 217.076 819.262 217.991C818.33 218.937 817.239 219.708 816.04 220.266C814.768 220.893 813.411 221.328 812.013 221.558L823.4 236.893H818.151ZM815.374 205.241C813.325 203.811 810.86 203.118 808.376 203.275H796.879V218.553H808.348C809.635 218.569 810.918 218.389 812.152 218.019C813.248 217.7 814.275 217.176 815.179 216.475C816.033 215.838 816.72 214.999 817.179 214.031C817.672 213.008 817.919 211.883 817.901 210.745C817.936 209.683 817.717 208.628 817.263 207.669C816.808 206.711 816.132 205.878 815.291 205.241H815.374Z" fill="white"/>
<path d="M839.201 207.796C839.775 206.982 840.023 205.979 839.895 204.988H837.979V199.371H842.867V204.285C842.981 206.054 842.469 207.806 841.423 209.229C840.238 210.492 838.678 211.33 836.98 211.616L836.341 209.734C837.448 209.359 838.436 208.689 839.201 207.796Z" fill="white"/>
<path d="M863.473 211.11C863.791 211.896 864.32 212.577 865 213.076C865.94 213.767 866.98 214.307 868.083 214.677C869.719 215.271 871.4 215.732 873.109 216.053C876.411 216.609 879.539 217.936 882.245 219.929C883.217 220.76 883.987 221.804 884.497 222.982C885.007 224.16 885.244 225.441 885.189 226.726C885.213 228.207 884.909 229.674 884.298 231.02C883.688 232.367 882.788 233.558 881.662 234.506C880.485 235.488 879.125 236.223 877.663 236.668C876.018 237.185 874.304 237.441 872.581 237.426C869.803 237.453 867.044 236.958 864.444 235.966C861.857 234.903 859.478 233.381 857.419 231.472L860.029 228.355C861.757 230.009 863.747 231.357 865.916 232.343C868.075 233.27 870.404 233.72 872.748 233.663C874.887 233.774 877.001 233.151 878.746 231.894C879.464 231.357 880.044 230.653 880.435 229.841C880.827 229.029 881.019 228.134 880.996 227.231C881.01 226.416 880.869 225.605 880.579 224.844C880.26 224.09 879.753 223.432 879.107 222.934C878.207 222.252 877.204 221.721 876.136 221.362C874.564 220.819 872.959 220.378 871.332 220.041C869.444 219.636 867.587 219.092 865.778 218.413C864.369 217.909 863.055 217.168 861.89 216.222C860.9 215.423 860.118 214.391 859.612 213.217C859.085 211.927 858.829 210.54 858.862 209.144C858.847 207.718 859.151 206.307 859.751 205.016C860.351 203.75 861.224 202.637 862.306 201.758C863.449 200.807 864.758 200.083 866.166 199.623C867.739 199.081 869.392 198.815 871.054 198.837C873.471 198.783 875.878 199.164 878.163 199.96C880.299 200.786 882.294 201.941 884.078 203.387L881.635 206.645C880.073 205.333 878.31 204.289 876.414 203.555C874.636 202.893 872.754 202.56 870.86 202.572C869.756 202.556 868.658 202.727 867.61 203.078C866.709 203.344 865.862 203.772 865.111 204.342C864.445 204.858 863.904 205.521 863.528 206.28C863.152 207.027 862.961 207.856 862.973 208.695C862.985 209.525 863.155 210.345 863.473 211.11Z" fill="white"/>
</g>
<defs>
<clipPath id="clip0_10_24">
<rect width="999.381" height="237.07" fill="white" transform="translate(0.916992 0.440308)"/>
</clipPath>
</defs>
</svg>
